<mxfile host="app.diagrams.net" modified="2022-10-13T03:57:39.526Z" agent="5.0 (Macintosh; Intel Mac OS X 10_15_7) AppleWebKit/537.36 (KHTML, like Gecko) Chrome/105.0.0.0 Safari/537.36" etag="Vc4mYK8dDcEpBdKs-Jk1" version="20.4.0" type="github">
  <diagram id="lPeAWQNbHUtWdgvwRQlS" name="Page-1">
    <mxGraphModel dx="666" dy="398" grid="1" gridSize="10" guides="1" tooltips="1" connect="1" arrows="1" fold="1" page="1" pageScale="1" pageWidth="827" pageHeight="1169" math="0" shadow="0">
      <root>
        <mxCell id="0" />
        <mxCell id="1" parent="0" />
        <mxCell id="04GkZW3KmbyV3sS1qvO0-1" value="链路加速方案" style="text;html=1;strokeColor=none;fillColor=none;align=center;verticalAlign=middle;whiteSpace=wrap;rounded=0;" vertex="1" parent="1">
          <mxGeometry x="250" y="300" width="120" height="20" as="geometry" />
        </mxCell>
        <mxCell id="04GkZW3KmbyV3sS1qvO0-2" value="云API" style="rounded=1;whiteSpace=wrap;html=1;" vertex="1" parent="1">
          <mxGeometry x="80" y="360" width="120" height="60" as="geometry" />
        </mxCell>
        <mxCell id="04GkZW3KmbyV3sS1qvO0-3" value="链路梳理" style="text;html=1;strokeColor=none;fillColor=none;align=center;verticalAlign=middle;whiteSpace=wrap;rounded=0;" vertex="1" parent="1">
          <mxGeometry x="70" y="330" width="120" height="20" as="geometry" />
        </mxCell>
        <mxCell id="04GkZW3KmbyV3sS1qvO0-4" value="treehole" style="rounded=1;whiteSpace=wrap;html=1;" vertex="1" parent="1">
          <mxGeometry x="240" y="360" width="120" height="60" as="geometry" />
        </mxCell>
      </root>
    </mxGraphModel>
  </diagram>
</mxfile>
